<?xml version="1.0" encoding="UTF-8"?>
<svg id="Layer_1" data-name="Layer 1" xmlns="http://www.w3.org/2000/svg" xmlns:xlink="http://www.w3.org/1999/xlink" viewBox="0 0 48 48">
  <defs>
    <style>
      .cls-1 {
        fill: none;
      }

      .cls-2 {
        fill: url(#linear-gradient);
      }
    </style>
    <linearGradient id="linear-gradient" x1="6.28" y1="1041.46" x2="35.79" y2="1070.79" gradientTransform="translate(0 -1030)" gradientUnits="userSpaceOnUse">
      <stop offset="0" stop-color="#44b7ff"/>
      <stop offset="1" stop-color="#4ebaff" stop-opacity="0"/>
    </linearGradient>
  </defs>
  <path class="cls-1" d="M21.33,27.83c.62,0,1.21-.24,1.65-.68,.43-.44,.68-1.03,.68-1.65s-.24-1.21-.68-1.65c-.44-.43-1.03-.68-1.65-.68s-1.21,.24-1.65,.68c-.43,.44-.68,1.03-.68,1.65s.24,1.21,.68,1.65c.44,.43,1.03,.68,1.65,.68Z"/>
  <path class="cls-1" d="M29.5,27.83c.62,0,1.21-.24,1.65-.68,.43-.44,.68-1.03,.68-1.65s-.24-1.21-.68-1.65c-.44-.43-1.03-.68-1.65-.68s-1.21,.24-1.65,.68c-.43,.44-.68,1.03-.68,1.65s.24,1.21,.68,1.65c.44,.43,1.03,.68,1.65,.68Z"/>
  <path class="cls-1" d="M21.33,19.66c.62,0,1.65-.68,1.65-.68,0,0,.68-1.03,.68-1.65s-.24-1.21-.68-1.65c-.44-.43-1.03-.68-1.65-.68s-1.21,.24-1.65,.68c-.43,.44-.68,1.03-.68,1.65s.24,1.21,.68,1.65c.44,.43,1.03,.68,1.65,.68Z"/>
  <path class="cls-1" d="M23.66,33.67c0-.62-.25-1.21-.68-1.65-.44-.44-1.03-.68-1.65-.68s-1.21,.25-1.65,.68c-.44,.44-.68,1.03-.68,1.65s.25,1.21,.68,1.65c.44,.44,1.03,.68,1.65,.68s1.21-.25,1.65-.68c.44-.44,.68-1.03,.68-1.65Z"/>
  <path class="cls-1" d="M29.5,19.66c.62,0,1.21-.25,1.65-.68,.44-.44,.68-1.03,.68-1.65s-.25-1.21-.68-1.65c-.44-.44-1.03-.68-1.65-.68s-1.21,.25-1.65,.68c-.44,.44-.68,1.03-.68,1.65s.25,1.21,.68,1.65c.44,.44,1.03,.68,1.65,.68Z"/>
  <path class="cls-1" d="M31.15,32.02c-.44-.43-1.03-.68-1.65-.68s-1.21,.24-1.65,.68c-.43,.44-.68,1.03-.68,1.65s.24,1.21,.68,1.65c.44,.43,1.03,.68,1.65,.68s1.21-.24,1.65-.68c.43-.44,.68-1.03,.68-1.65s-.24-1.21-.68-1.65Z"/>
  <rect class="cls-1" x="31.23" y="43.92" width="5.2" height="4.62"/>
  <path class="cls-1" d="M37.67,31.34c-.62,0-1.21,.25-1.65,.68-.44,.44-.68,1.03-.68,1.65s.25,1.21,.68,1.65c.44,.44,1.03,.68,1.65,.68s1.21-.25,1.65-.68,.68-1.03,.68-1.65-.25-1.21-.68-1.65c-.44-.44-1.03-.68-1.65-.68Z"/>
  <rect class="cls-1" x="22.56" y="43.92" width="5.2" height="4.62"/>
  <path class="cls-2" d="M47.61,27.51c-.26-.63-.64-1.2-1.13-1.68-.48-.48-1.06-.86-1.69-1.13-.63-.26-1.31-.4-1.99-.4h-2.9V12.19c0-1.38-.55-2.7-1.52-3.67-.98-.97-2.3-1.52-3.68-1.52H16.2c-1.38,0-2.7,.55-3.68,1.52-.98,.97-1.52,2.29-1.52,3.67V50.27c0,.96,.78,1.73,1.73,1.73H46.27c.46,0,.9-.18,1.23-.51,.33-.32,.51-.76,.51-1.22V29.5c0-.68-.13-1.36-.4-1.99ZM27.85,15.68c.44-.43,1.03-.68,1.65-.68s1.21,.24,1.65,.68c.43,.44,.68,1.03,.68,1.65s-.24,1.21-.68,1.65c-.44,.43-1.03,.68-1.65,.68s-1.21-.24-1.65-.68c-.43-.44-.68-1.03-.68-1.65s.24-1.21,.68-1.65Zm0,8.17c.44-.44,1.03-.68,1.65-.68s1.21,.25,1.65,.68c.44,.44,.68,1.03,.68,1.65s-.25,1.21-.68,1.65c-.44,.44-1.03,.68-1.65,.68s-1.21-.25-1.65-.68c-.44-.44-.68-1.03-.68-1.65s.25-1.21,.68-1.65Zm-8.17-8.17c.44-.44,1.03-.68,1.65-.68s1.21,.25,1.65,.68c.44,.44,.68,1.03,.68,1.65s-.68,1.65-.68,1.65c0,0-1.03,.68-1.65,.68s-1.21-.25-1.65-.68c-.44-.44-.68-1.03-.68-1.65s.25-1.21,.68-1.65Zm0,8.17c.44-.44,1.03-.68,1.65-.68s1.21,.25,1.65,.68c.44,.44,.68,1.03,.68,1.65s-.25,1.21-.68,1.65c-.44,.44-1.03,.68-1.65,.68s-1.21-.25-1.65-.68c-.44-.44-.68-1.03-.68-1.65s.25-1.21,.68-1.65Zm0,11.47c-.43-.44-.68-1.03-.68-1.65s.24-1.21,.68-1.65c.44-.43,1.03-.68,1.65-.68s1.21,.24,1.65,.68c.43,.44,.68,1.03,.68,1.65s-.24,1.21-.68,1.65c-.44,.43-1.03,.68-1.65,.68s-1.21-.24-1.65-.68Zm8.08,13.22h-5.2v-4.62h5.2v4.62Zm1.74-12.54c-.62,0-1.21-.25-1.65-.68-.44-.44-.68-1.03-.68-1.65s.25-1.21,.68-1.65c.44-.44,1.03-.68,1.65-.68s1.21,.25,1.65,.68c.44,.44,.68,1.03,.68,1.65s-.25,1.21-.68,1.65c-.44,.44-1.03,.68-1.65,.68Zm6.93,12.54h-5.2v-4.62h5.2v4.62Zm2.89-13.22c-.44,.43-1.03,.68-1.65,.68s-1.21-.24-1.65-.68c-.43-.44-.68-1.03-.68-1.65s.24-1.21,.68-1.65c.44-.43,1.03-.68,1.65-.68s1.21,.24,1.65,.68c.43,.44,.68,1.03,.68,1.65s-.24,1.22-.68,1.65Z"/>
</svg>