<?xml version="1.0" encoding="UTF-8"?>
<svg id="Layer_1" data-name="Layer 1" xmlns="http://www.w3.org/2000/svg" xmlns:xlink="http://www.w3.org/1999/xlink" viewBox="0 0 48 48">
  <defs>
    <style>
      .cls-1 {
        fill: none;
      }

      .cls-2 {
        fill: url(#linear-gradient);
      }

      .cls-3 {
        clip-path: url(#clippath);
      }

      .cls-4 {
        fill: url(#linear-gradient-3);
      }

      .cls-5 {
        fill: url(#linear-gradient-2);
      }
    </style>
    <clipPath id="clippath">
      <rect class="cls-1" width="48" height="48"/>
    </clipPath>
    <linearGradient id="linear-gradient" x1="3.3" y1="39.15" x2="33.31" y2="5.91" gradientTransform="translate(0 50) scale(1 -1)" gradientUnits="userSpaceOnUse">
      <stop offset="0" stop-color="#44b7ff"/>
      <stop offset="1" stop-color="#4ebaff" stop-opacity="0"/>
    </linearGradient>
    <linearGradient id="linear-gradient-2" x1="17.62" y1="52.07" x2="47.63" y2="18.83" xlink:href="#linear-gradient"/>
    <linearGradient id="linear-gradient-3" x1="6.08" y1="41.66" x2="36.09" y2="8.42" xlink:href="#linear-gradient"/>
  </defs>
  <g class="cls-3">
    <g>
      <path class="cls-2" d="M50.1,40.5l-20.03-10.93-20.03,10.93,19.53,10.66v-10.66c0-.28,.22-.5,.5-.5s.5,.22,.5,.5v10.66l19.53-10.66Z"/>
      <path class="cls-5" d="M40.8,23.5c-.14-.24-.06-.54,.18-.68l9.15-5.3L30.57,6.84V28.7l20.07,10.95V18.37l-9.17,5.31c-.24,.14-.54,.06-.68-.18Z"/>
      <path class="cls-4" d="M29.57,6.84L10.02,17.51l9.15,5.3c.24,.14,.32,.44,.18,.68-.14,.24-.44,.32-.68,.18l-9.17-5.31v21.29l20.07-10.95V6.84Z"/>
    </g>
  </g>
</svg>