<?xml version="1.0" encoding="UTF-8"?>
<svg id="Layer_1" data-name="Layer 1" xmlns="http://www.w3.org/2000/svg" viewBox="0 0 16 16">
  <path d="M12.09,4c-.37,0-.67,.3-.67,.67v6.67c0,1.84-1.49,3.33-3.33,3.33s-3.33-1.49-3.33-3.33V3.33c0-1.1,.89-2,2-2s2,.9,2,2v6.67c0,.37-.3,.67-.67,.67s-.67-.3-.67-.67V4.67c0-.37-.3-.67-.67-.67s-.67,.3-.67,.67v5.33c0,1.11,.89,2,2,2s2-.89,2-2V3.33c0-1.84-1.5-3.33-3.34-3.33S3.43,1.49,3.43,3.33V11.33c0,2.58,2.09,4.67,4.67,4.67s4.67-2.09,4.67-4.67V4.67c0-.37-.3-.67-.67-.67Z"/>
</svg>