<?xml version="1.0" encoding="UTF-8"?>
<svg id="Layer_1" data-name="Layer 1" xmlns="http://www.w3.org/2000/svg" viewBox="0 0 10.01 10.01">
  <defs>
    <style>
      .cls-1 {
        fill-rule: evenodd;
      }
    </style>
  </defs>
  <path class="cls-1" d="M7.11,3.54c.18,.15,.2,.42,.05,.6l-2.29,2.75c-.08,.09-.19,.15-.31,.15-.12,0-.23-.04-.32-.12l-1.38-1.38c-.17-.17-.17-.43,0-.6,.17-.17,.43-.17,.6,0l1.05,1.05,2-2.39c.15-.18,.42-.2,.6-.05Z"/>
  <path class="cls-1" d="M5.01,.85C2.71,.85,.85,2.71,.85,5.01s1.86,4.16,4.16,4.16,4.16-1.86,4.16-4.16S7.3,.85,5.01,.85ZM0,5.01C0,2.24,2.24,0,5.01,0s5.01,2.24,5.01,5.01-2.24,5.01-5.01,5.01S0,7.77,0,5.01Z"/>
</svg>