<?xml version="1.0" encoding="UTF-8"?>
<svg id="Layer_1" data-name="Layer 1" xmlns="http://www.w3.org/2000/svg" viewBox="0 0 40 40">
  <defs>
    <style>
      .cls-1 {
        fill-rule: evenodd;
      }
    </style>
  </defs>
  <path d="M20.38,14.81c-1.48,0-2.9,.59-3.94,1.63-1.05,1.05-1.63,2.46-1.63,3.94s.59,2.9,1.63,3.94c1.05,1.05,2.46,1.63,3.94,1.63s2.9-.59,3.94-1.63c1.05-1.05,1.63-2.46,1.63-3.94s-.59-2.9-1.63-3.94c-1.05-1.05-2.46-1.63-3.94-1.63Z"/>
  <path class="cls-1" d="M20.38,8.12c.3,0,.58,.12,.79,.33,.21,.21,.33,.49,.33,.79v1.12c0,.3-.12,.58-.33,.79-.21,.21-.49,.33-.79,.33s-.58-.12-.79-.33c-.21-.21-.33-.49-.33-.79v-1.12c0-.3,.12-.58,.33-.79,.21-.21,.49-.33,.79-.33Zm-9.71,2.56c.21-.21,.49-.33,.79-.33s.58,.12,.79,.33l1.67,1.67c.2,.21,.32,.49,.31,.78,0,.29-.12,.57-.33,.78s-.49,.32-.78,.33c-.29,0-.57-.11-.78-.31l-1.67-1.67c-.21-.21-.33-.49-.33-.79s.12-.58,.33-.79Zm19.42,0c.21,.21,.33,.49,.33,.79s-.12,.58-.33,.79l-1.67,1.67c-.1,.11-.23,.19-.36,.25-.14,.06-.28,.09-.43,.09s-.29-.03-.43-.08c-.14-.06-.26-.14-.37-.24s-.19-.23-.24-.37c-.06-.14-.08-.28-.08-.43,0-.15,.03-.29,.09-.43,.06-.14,.14-.26,.25-.36l1.67-1.67c.21-.21,.49-.33,.79-.33s.58,.12,.79,.33ZM8.11,20.38c0-.3,.12-.58,.33-.79,.21-.21,.49-.33,.79-.33h1.12c.3,0,.58,.12,.79,.33,.21,.21,.33,.49,.33,.79s-.12,.58-.33,.79c-.21,.21-.49,.33-.79,.33h-1.12c-.3,0-.58-.12-.79-.33-.21-.21-.33-.49-.33-.79Zm21.19,0c0-.3,.12-.58,.33-.79s.49-.33,.79-.33h1.12c.3,0,.58,.12,.79,.33,.21,.21,.33,.49,.33,.79s-.12,.58-.33,.79c-.21,.21-.49,.33-.79,.33h-1.12c-.3,0-.58-.12-.79-.33-.21-.21-.33-.49-.33-.79Zm-15.38,6.46c.21,.21,.33,.49,.33,.79s-.12,.58-.33,.79l-1.67,1.67c-.21,.2-.49,.32-.78,.31-.29,0-.57-.12-.78-.33-.21-.21-.32-.49-.33-.78,0-.29,.11-.57,.31-.78l1.67-1.67c.21-.21,.49-.33,.79-.33s.58,.12,.79,.33Zm12.92,0c.21-.21,.49-.33,.79-.33s.58,.12,.79,.33l1.67,1.67c.2,.21,.32,.49,.31,.78,0,.29-.12,.57-.33,.78s-.49,.32-.78,.33c-.29,0-.57-.11-.78-.31l-1.67-1.67c-.21-.21-.33-.49-.33-.79s.12-.58,.33-.79Zm-6.46,2.46c.3,0,.58,.12,.79,.33,.21,.21,.33,.49,.33,.79v1.12c0,.3-.12,.58-.33,.79-.21,.21-.49,.33-.79,.33s-.58-.12-.79-.33c-.21-.21-.33-.49-.33-.79v-1.12c0-.3,.12-.58,.33-.79s.49-.33,.79-.33Z"/>
</svg>