<?xml version="1.0" encoding="UTF-8"?>
<svg id="Layer_1" data-name="Layer 1" xmlns="http://www.w3.org/2000/svg" viewBox="0 0 25 25">
  <defs>
    <style>
      .cls-1 {
        fill-rule: evenodd;
      }
    </style>
  </defs>
  <path class="cls-1" d="M23.48,11.14c-.61-1.49-2.15-2.65-4.03-3.43-.51-.21-1.05-.39-1.62-.55-.45-1.58-1.09-2.98-1.91-4.01-.89-1.12-2.06-1.9-3.42-1.9-1.92,0-3.44,1.54-4.43,3.51-.36,.72-.66,1.53-.91,2.4-.87,.25-1.68,.55-2.4,.91-1.97,.99-3.51,2.5-3.51,4.43s1.54,3.44,3.51,4.43c.72,.36,1.53,.66,2.4,.91,.25,.87,.55,1.68,.91,2.4,.99,1.97,2.5,3.51,4.43,3.51,.47,0,.93-.1,1.35-.27,.43-.17,.63-.66,.46-1.09-.17-.43-.66-.63-1.09-.46-.24,.1-.49,.15-.73,.15-.95,0-2.04-.79-2.94-2.59-.19-.38-.36-.8-.52-1.24,1.09,.18,2.25,.29,3.46,.29,2.04,0,3.96-.29,5.62-.79l-1.01,2.07c-.2,.41-.03,.91,.38,1.11,.41,.2,.91,.03,1.11-.38l1.94-3.97s0-.05,.02-.07c.01-.03,.01-.06,.02-.08,.02-.08,.04-.16,.03-.24,0-.02,0-.03,0-.05,0-.09-.03-.18-.07-.27,0,0,0-.01,0-.02,0-.01-.02-.02-.02-.03-.04-.08-.09-.15-.16-.21-.02-.02-.05-.04-.07-.05-.04-.03-.07-.07-.12-.09l-3.97-1.94c-.41-.2-.91-.03-1.11,.38-.2,.41-.03,.91,.38,1.11l2.26,1.1c-1.5,.46-3.28,.74-5.22,.74-1.42,0-2.76-.15-3.96-.41-.26-1.2-.41-2.54-.41-3.96s.15-2.76,.41-3.96c1.2-.26,2.54-.41,3.96-.41,2.43,0,4.63,.43,6.31,1.13,1.72,.71,2.76,1.63,3.12,2.52,.17,.43,.66,.63,1.09,.46,.43-.17,.63-.66,.46-1.09ZM6.74,15.95c-.44-.16-.86-.33-1.24-.52-1.8-.9-2.59-1.99-2.59-2.94s.79-2.04,2.59-2.94c.38-.19,.8-.36,1.24-.52-.18,1.09-.29,2.25-.29,3.45s.1,2.36,.29,3.45Zm2.3-9.21c.16-.44,.33-.86,.52-1.24,.9-1.8,1.99-2.59,2.94-2.59,.67,0,1.41,.38,2.11,1.28,.51,.64,.97,1.51,1.34,2.56-1.09-.18-2.25-.29-3.46-.29s-2.36,.1-3.46,.29Z"/>
</svg>