<?xml version="1.0" encoding="UTF-8"?>
<svg id="Layer_1" data-name="Layer 1" xmlns="http://www.w3.org/2000/svg" viewBox="0 0 132 11">
  <path d="M0,10.36L4.36,.43h1.61l4.36,9.93h-1.83l-1.01-2.38H2.81l-1.01,2.38H0Zm3.43-3.92h3.42l-1.71-3.95-1.71,3.95Z"/>
  <path d="M22.58,10.66l-1.19-1.05c-.87,.61-1.88,.93-3.02,.93-1.5,0-2.74-.49-3.7-1.48-.96-.99-1.45-2.19-1.45-3.62s.49-2.61,1.47-3.6c.98-.99,2.21-1.49,3.72-1.49s2.74,.49,3.7,1.48c.96,.99,1.45,2.19,1.45,3.62,0,1.13-.33,2.14-1.01,3.02l1.14,.96-1.11,1.24Zm-4.17-1.71c.63,0,1.2-.16,1.69-.47l-1.69-1.43,1.12-1.27,1.71,1.54c.33-.52,.51-1.13,.51-1.87,0-.98-.32-1.81-.95-2.49-.63-.68-1.44-1.02-2.42-1.02s-1.77,.33-2.4,1.01c-.63,.68-.95,1.51-.95,2.49s.32,1.81,.95,2.49c.65,.69,1.45,1.04,2.44,1.04Z"/>
  <path d="M32.42,10.52c-1.31,0-2.34-.38-3.08-1.12-.74-.74-1.12-1.81-1.12-3.23V.51h1.74V6.11c0,.9,.22,1.59,.66,2.08,.44,.49,1.06,.74,1.83,.74s1.39-.24,1.83-.71c.44-.47,.66-1.15,.66-2.05V.51h1.74V6.1c0,1.43-.38,2.53-1.14,3.29-.76,.76-1.8,1.13-3.13,1.13Z"/>
  <path d="M42.43,10.36V.51h1.74V10.36h-1.74Z"/>
  <path d="M50.03,10.36V.51h1.74V8.79h5.2v1.57h-6.94Z"/>
  <path d="M59.99,10.36L64.36,.43h1.61l4.36,9.93h-1.83l-1.01-2.38h-4.68l-1.01,2.38h-1.8Zm3.45-3.92h3.42l-1.71-3.95-1.71,3.95Z"/>
  <path d="M74.34,10.36V.51h1.85l3.02,4.66,3-4.66h1.85V10.36h-1.74V3.3l-3.13,4.64h-.06l-3.1-4.61v7.03h-1.69Z"/>
  <path d="M89.31,10.36V.51h7.34v1.54h-5.6v2.56h4.97v1.54h-4.97v2.64h5.68v1.54h-7.42v.02Z"/>
  <path d="M101.47,10.36V.51h3.7c1.55,0,2.82,.47,3.8,1.4,.98,.93,1.47,2.11,1.47,3.52s-.49,2.58-1.47,3.52c-.98,.94-2.25,1.4-3.78,1.4h-3.72Zm1.74-1.57h1.94c1.03,0,1.85-.31,2.48-.93,.63-.63,.95-1.43,.95-2.41s-.32-1.78-.95-2.41c-.63-.63-1.46-.94-2.48-.94h-1.94v6.69Z"/>
  <path d="M115.17,10.36V.51h1.74V10.36h-1.74Z"/>
  <path d="M121.16,10.36L125.52,.43h1.61l4.36,9.93h-1.83l-1.01-2.38h-4.68l-1.01,2.38h-1.8Zm3.43-3.92h3.42l-1.71-3.95-1.71,3.95Z"/>
</svg>