<?xml version="1.0" encoding="UTF-8"?>
<svg id="Layer_1" data-name="Layer 1" xmlns="http://www.w3.org/2000/svg" viewBox="0 0 43 43">
  <path d="M21.5,35.54c-7.96,0-14.55-7.06-17.78-11.27-.61-.78-.95-1.77-.95-2.77s.34-1.99,.95-2.78C6.95,14.52,13.54,7.46,21.5,7.46s14.55,7.06,17.78,11.27c0,0,0,0,0,0,1.27,1.66,1.27,3.89,0,5.54-3.22,4.21-9.82,11.27-17.78,11.27Zm0-25.08c-6.92,0-13.07,7.06-15.39,10.09-.21,.28-.33,.61-.33,.95s.11,.67,.32,.94c2.33,3.04,8.49,10.1,15.4,10.1s13.07-7.06,15.4-10.09c.44-.57,.44-1.32,0-1.9-2.33-3.04-8.48-10.09-15.39-10.09Z"/>
  <path d="M21.5,28.38c-3.79,0-6.88-3.08-6.88-6.88s3.08-6.88,6.88-6.88,6.88,3.08,6.88,6.88-3.08,6.88-6.88,6.88Zm0-10.75c-2.14,0-3.88,1.74-3.88,3.88s1.74,3.88,3.88,3.88,3.88-1.74,3.88-3.88-1.74-3.88-3.88-3.88Z"/>
</svg>