<?xml version="1.0" encoding="UTF-8"?>
<svg id="Layer_1" data-name="Layer 1" xmlns="http://www.w3.org/2000/svg" viewBox="0 0 40 40">
  <path d="M17.78,8.41c.14,.17,.23,.39,.25,.61,.02,.22-.03,.45-.13,.65-.85,1.55-1.29,3.3-1.29,5.06,0,5.89,4.8,10.65,10.71,10.65,.77,0,1.52-.08,2.24-.23,.22-.05,.45-.03,.66,.05,.21,.08,.39,.22,.52,.41,.14,.19,.21,.42,.2,.66,0,.24-.09,.46-.24,.65-1.15,1.41-2.6,2.55-4.24,3.33-1.64,.78-3.44,1.18-5.26,1.18-6.75,0-12.21-5.44-12.21-12.13,0-5.04,3.09-9.36,7.5-11.2,.22-.09,.46-.11,.69-.05,.23,.06,.44,.19,.59,.37h0Z"/>
</svg>