<?xml version="1.0" encoding="UTF-8"?>
<svg id="Layer_1" data-name="Layer 1" xmlns="http://www.w3.org/2000/svg" viewBox="0 0 477.97 130.83">
  <defs>
    <style>
      .cls-1 {
        fill: #c72d46;
      }

      .cls-2 {
        fill: #2b3d5f;
      }

      .cls-3 {
        fill: #2b3e5f;
      }

      .cls-4 {
        fill: #2c3f60;
      }

      .cls-5 {
        fill: #2e4061;
      }
    </style>
  </defs>
  <path class="cls-5" d="M450.95,83.72h-10.74c-4.87-14.69-9.81-29.56-14.74-44.43-.29,.04-.58,.07-.86,.11v44.25c-4.07,.4-7.64,.31-11.48,.08V20.62c5.21-.69,10.31-.13,15.83-.37,5.5,15.96,10.95,31.75,16.39,47.53,.35,.04,.69,.07,1.04,.11,5.26-15.73,10.53-31.46,15.9-47.49,5.21-.11,10.29-.3,15.69,.17v63.07c-3.74,.53-7.31,.2-11.25,.2V39.31c-.35-.08-.71-.16-1.06-.24-4.89,14.86-9.79,29.72-14.71,44.65Z"/>
  <path class="cls-1" d="M4.71,4.96V103.85c5.62,0,11.23,.37,16.77-.09,7.12-.59,13.19,1.34,19.19,5.12,10.1,6.35,20.55,12.14,30.63,18.03,.26,1.94-1.02,2.71-1.46,3.93-.68-.08-1.23,0-1.61-.21-10.79-6.23-21.64-12.35-32.3-18.81-3.72-2.25-7.39-3.25-11.71-3.11-7.95,.25-15.92,.07-24.22,.07V0H108.07V108.51h-30.55c-1.28-1.23-.62-2.68-.57-4.55h26.18V4.96H4.71Z"/>
  <path class="cls-2" d="M197.68,36.95h13.42c4.12,10.03,8.31,20.22,12.5,30.42,.32,.03,.64,.05,.96,.08,3.3-10.13,6.61-20.26,9.93-30.44h14.43v46.62h-10.72v-25c-.33-.06-.65-.12-.98-.18-2.88,8.39-5.76,16.78-8.66,25.25h-9.74c-3.58-8.46-7.11-16.81-10.65-25.16-.22,.04-.45,.09-.67,.13v24.62c-3.34,1.19-6.44,.3-9.81,.68V36.95Z"/>
  <path class="cls-3" d="M316.04,37.02h9.73c1.43,1.16,.33,2.94,1.33,4.56,10.48-8.27,20.94-8.07,30.56,1.22,8.49,8.2,9.51,21.9,3.07,31.69-7.02,10.68-22.02,14.59-33.45,5.29-.81,6.91,.05,13.61-.52,20.53-3.71,.14-7.12,.46-10.71-.25V37.02Zm37.22,23.4c-.02-7.52-5.83-13.63-12.95-13.62-7.04,0-13.25,6.24-13.35,13.42-.11,7.53,6.03,13.87,13.39,13.82,7.26-.05,12.94-6.03,12.92-13.61Z"/>
  <path class="cls-4" d="M176.43,66.01h12.53c-3.57,11.92-19.34,20.52-34.03,18.71-14.73-1.82-26.79-15.4-27.72-30.27-1.13-18.27,12.09-31.68,25.7-34.54,15.16-3.18,31.21,5.1,36.33,18.92h-12.64c-12.19-10.2-22.92-10.81-31.7-1.58-7.88,8.3-8.04,20.96-.35,29.46,8.62,9.53,19.06,9.26,31.87-.71Z"/>
  <path class="cls-2" d="M305.81,83.78h-9.68c-1.77-1.11-.14-3.22-1.38-4.45-12.17,8.18-23.43,7.25-31.91-2.62-8.08-9.4-7.61-23.98,.7-33.42,6.21-7.06,19.99-11.46,30.58-2.57,1.71-.67,.23-2.44,1.81-3.69,2.71-.49,6.13-.09,9.89-.15v46.9Zm-10.83-23.4c0-7.18-6.14-13.57-13.14-13.63-7.06-.06-13.26,6.1-13.42,13.34-.17,7.46,6.11,13.97,13.38,13.88,7.09-.09,13.17-6.37,13.18-13.59Z"/>
  <path class="cls-1" d="M79.2,20.28v56.31c-1.56,.87-2.96,.85-4.67-.03v-30.12c-.3-.08-.59-.16-.89-.23-6.43,16.44-12.86,32.89-19.66,50.27-6.76-17.26-13.19-33.68-19.62-50.09-.29,.07-.57,.13-.86,.2v30.03c-1.8,.84-3.2,.82-4.69-.16V20.82c.24-.08,.49-.16,.73-.24,7.99,20.46,15.99,40.93,24.44,62.56,8.51-21.8,16.57-42.44,24.62-63.09,.2,.08,.4,.15,.6,.23Z"/>
  <path class="cls-3" d="M393.19,83.74h-11.16V46.62h-13.39c-.98-3.31-.32-6.23-.55-9.46h38.35c.78,2.85,.48,5.88,.15,9.36h-13.4v37.22Z"/>
</svg>