<svg width="1349" height="223" viewBox="0 0 1349 223" fill="none" xmlns="http://www.w3.org/2000/svg">
<path opacity="0.4" d="M155.9 158.1H184.4C179.8 177.9 170.2 193.7 155.6 205.5C141 217.1 122.3 222.9 99.5 222.9C68.3 222.9 44 212.6 26.6 192C9.2 171.4 0.500001 144.7 0.500001 111.9C0.500001 79.1 9.3 52.4 26.9 31.8C44.5 11.2 68.8 0.899983 99.8 0.899983C121.4 0.899983 139.4 6.29998 153.8 17.1C168.2 27.7 177.6 42.3 182 60.9H153.5C145.1 37.3 127.2 25.5 99.8 25.5C76.2 25.5 58.3 33.8 46.1 50.4C33.9 67 27.8 87.5 27.8 111.9C27.8 136.5 33.8 157.1 45.8 173.7C58 190.1 75.9 198.3 99.5 198.3C114.3 198.3 126.5 194.8 136.1 187.8C145.7 180.6 152.3 170.7 155.9 158.1ZM226.632 219V4.79999H271.632L325.632 105.3H332.232L385.332 4.79999H430.632V219H404.232V35.4H397.632L342.732 137.1H314.532L259.632 35.4H253.032V219H226.632ZM629.923 219L607.723 153.3H513.823L491.623 219H464.023L538.123 4.79999H583.723L658.123 219H629.923ZM554.623 32.4L521.923 128.7H599.323L566.623 32.4H554.623ZM691.28 4.79999H781.88C805.08 4.79999 822.98 10.4 835.58 21.6C848.18 32.8 854.48 48.5 854.48 68.7C854.48 89.1 848.18 105 835.58 116.4C822.98 127.6 805.08 133.2 781.88 133.2H718.28V219H691.28V4.79999ZM718.28 109.2H777.38C810.58 109.2 827.18 95.8 827.18 69C827.18 42.2 810.58 28.8 777.38 28.8H718.28V109.2ZM1043.34 4.79999V28.8H973.138V219H946.138V28.8H875.338V4.79999H1043.34ZM1144.8 219V4.79999H1189.8L1243.8 105.3H1250.4L1303.5 4.79999H1348.8V219H1322.4V35.4H1315.8L1260.9 137.1H1232.7L1177.8 35.4H1171.2V219H1144.8Z" fill="url(#paint0_linear_463_818)"/>
<defs>
<linearGradient id="paint0_linear_463_818" x1="-135.968" y1="-150.858" x2="45.0562" y2="607.137" gradientUnits="userSpaceOnUse">
<stop stop-color="#44B7FF"/>
<stop offset="1" stop-color="#4EBAFF" stop-opacity="0"/>
</linearGradient>
</defs>
</svg>
