<svg width="132" height="11" viewBox="0 0 132 11" fill="none" xmlns="http://www.w3.org/2000/svg">
<path d="M0 10.3607L4.36436 0.43335H5.97727L10.3416 10.3607H8.50733L7.49531 7.98504H2.8147L1.80267 10.3607H0ZM3.4314 6.44324H6.84698L5.13919 2.49433L3.4314 6.44324Z" fill="#A7BBC7"/>
<path d="M22.5795 10.6602L21.3935 9.60615C20.5238 10.2197 19.5118 10.5344 18.3733 10.5344C16.871 10.5344 15.6376 10.0467 14.673 9.05551C13.7085 8.06435 13.2183 6.86866 13.2183 5.43699C13.2183 4.03678 13.7085 2.82536 14.6889 1.8342C15.6693 0.843046 16.9027 0.3396 18.4049 0.3396C19.9071 0.3396 21.1405 0.827313 22.1051 1.81847C23.0697 2.80963 23.5599 4.00532 23.5599 5.43699C23.5599 6.56974 23.2278 7.57663 22.5479 8.45767L23.6864 9.41736L22.5795 10.6602ZM18.4049 8.94538C19.0374 8.94538 19.6067 8.78805 20.0969 8.4734L18.4049 7.04172L19.5276 5.76738L21.2354 7.30918C21.5675 6.79 21.7414 6.17643 21.7414 5.43699C21.7414 4.46156 21.4251 3.62773 20.7926 2.95123C20.1601 2.27472 19.3537 1.9286 18.3733 1.9286C17.4087 1.9286 16.6022 2.25899 15.9697 2.93549C15.3372 3.612 15.0209 4.44583 15.0209 5.42126C15.0209 6.39668 15.3372 7.23052 15.9697 7.90702C16.618 8.59926 17.4245 8.94538 18.4049 8.94538Z" fill="#A7BBC7"/>
<path d="M32.4162 10.5189C31.1037 10.5189 30.0759 10.1413 29.3327 9.40191C28.5895 8.66247 28.21 7.59265 28.21 6.17671V0.512939H29.9494V6.11378C29.9494 7.01054 30.1708 7.70278 30.6135 8.19049C31.0563 8.6782 31.673 8.92993 32.4478 8.92993C33.2385 8.92993 33.8394 8.69394 34.2821 8.22196C34.7249 7.74998 34.9463 7.07347 34.9463 6.17671V0.512939H36.6857V6.09804C36.6857 7.52972 36.3062 8.63101 35.5471 9.38618C34.7881 10.1413 33.7445 10.5189 32.4162 10.5189Z" fill="#A7BBC7"/>
<path d="M42.4258 10.3616V0.512939H44.1652V10.3616H42.4258Z" fill="#A7BBC7"/>
<path d="M50.0303 10.3616V0.512939H51.7697V8.78833H56.9721V10.3616H50.0303Z" fill="#A7BBC7"/>
<path d="M59.9932 10.3607L64.3575 0.43335H65.9704L70.3348 10.3607H68.5005L67.4885 7.98504H62.8079L61.7958 10.3607H59.9932ZM63.4404 6.44324H66.856L65.1482 2.49433L63.4404 6.44324Z" fill="#A7BBC7"/>
<path d="M74.3376 10.3616V0.512939H76.1877L79.208 5.16982L82.2125 0.512939H84.0626V10.3616H82.3232V3.29763L79.1922 7.93877H79.1289L76.0296 3.32909V10.3616H74.3376Z" fill="#A7BBC7"/>
<path d="M89.3115 10.3616V0.512939H96.6487V2.05474H91.0509V4.61917H96.0162V6.16098H91.0509V8.80407H96.7278V10.3459H89.3115V10.3616Z" fill="#A7BBC7"/>
<path d="M101.472 10.3616V0.512939H105.172C106.722 0.512939 107.987 0.98492 108.967 1.91315C109.948 2.84138 110.438 4.02133 110.438 5.43727C110.438 6.83748 109.948 8.01743 108.967 8.96139C107.987 9.90536 106.722 10.3616 105.188 10.3616H101.472ZM103.211 8.78833H105.156C106.184 8.78833 107.006 8.47368 107.639 7.86011C108.271 7.2308 108.588 6.42843 108.588 5.453C108.588 4.47758 108.271 3.67521 107.639 3.0459C107.006 2.41659 106.184 2.10194 105.156 2.10194H103.211V8.78833Z" fill="#A7BBC7"/>
<path d="M115.166 10.3616V0.512939H116.906V10.3616H115.166Z" fill="#A7BBC7"/>
<path d="M121.158 10.3607L125.523 0.43335H127.136L131.5 10.3607H129.666L128.654 7.98504H123.973L122.961 10.3607H121.158ZM124.59 6.44324H128.005L126.298 2.49433L124.59 6.44324Z" fill="#A7BBC7"/>
</svg>
