<svg width="1421" height="160" viewBox="0 0 1421 160" fill="none" xmlns="http://www.w3.org/2000/svg"
    vector-effect="non-scaling-stroke">
    <path fill-rule="evenodd" clip-rule="evenodd"
        d="M0 17.1415C0 26.6085 7.67452 34.283 17.1415 34.283L180.858 34.283C190.325 34.283 198 26.6085 198 17.1415C198 7.67453 190.325 7.71312e-06 180.858 7.32946e-06L17.1415 0C7.67452 0 0 7.67452 0 17.1415ZM17.5142 76.2829C7.84136 76.2829 0 68.4416 0 58.7688C0 49.096 7.84136 41.2546 17.5142 41.2546L180.486 41.2546C190.159 41.2546 198 49.096 198 58.7688C198 68.4416 190.159 76.2829 180.486 76.2829L17.5142 76.2829ZM0 100.141C0 109.608 7.67452 117.283 17.1415 117.283L180.858 117.283C190.325 117.283 198 109.608 198 100.141C198 90.6745 190.325 83 180.858 83L17.1415 83C7.67452 83 0 90.6745 0 100.141ZM0 141.141C0 150.608 7.67452 158.283 17.1415 158.283H180.858C190.325 158.283 198 150.608 198 141.141C198 131.674 190.325 124 180.858 124L17.1415 124C7.67452 124 0 131.674 0 141.141Z"
        fill="url(#paint0_linear_269_3616)" />
    <path d="M213 17.283H729" stroke="url(#paint1_linear_269_3616)" stroke-linecap="round" stroke-linejoin="round" />
    <path d="M213 59.283H729" stroke="url(#paint2_linear_269_3616)" stroke-linecap="round" stroke-linejoin="round" />
    <path d="M213 100.283H729" stroke="url(#paint3_linear_269_3616)" stroke-linecap="round" stroke-linejoin="round" />
    <path d="M213 141.283H729" stroke="url(#paint4_linear_269_3616)" stroke-linecap="round" stroke-linejoin="round" />
    <g clip-path="url(#clip0_269_3616)">
        <path fill-rule="evenodd" clip-rule="evenodd"
            d="M1338.16 26.7467C1338.14 26.4871 1337.92 26.2854 1337.66 26.283C1337.4 26.2806 1337.19 26.4783 1337.16 26.7375L1329.04 115.697L1325.67 107.737C1325.59 107.552 1325.41 107.432 1325.21 107.432H1317.09L1308.93 100.554C1308.77 100.414 1308.53 100.398 1308.34 100.514L1297.4 107.432H1228.59L1213.52 92.1905C1213.33 91.9985 1213.03 91.9918 1212.83 92.1753L1196.37 107.432H1174.44C1174.22 107.432 1174.02 107.578 1173.96 107.79L1170.58 119.172L1163.64 26.7458C1163.62 26.4847 1163.4 26.283 1163.14 26.2832C1162.87 26.2835 1162.66 26.4855 1162.64 26.7466L1156.11 115.626L1152.77 107.737C1152.69 107.552 1152.51 107.432 1152.31 107.432H1144.17L1134.62 100.531C1134.44 100.405 1134.21 100.405 1134.03 100.531L1124.48 107.432H1113.67H1105.28H1044.72L1029.65 92.1905C1029.47 92.004 1029.17 91.9916 1028.97 92.1621L1011.13 107.432H990.565C990.326 107.432 990.121 107.601 990.074 107.835L988.028 118.185L981.381 26.7467C981.362 26.4871 981.147 26.2854 980.887 26.283C980.626 26.2806 980.408 26.4783 980.384 26.7375L972.266 115.697L968.893 107.737C968.815 107.552 968.634 107.432 968.433 107.432H960.316L952.157 100.554C951.99 100.414 951.751 100.398 951.567 100.514L940.624 107.432H871.816L856.747 92.1905C856.558 91.9985 856.25 91.9918 856.052 92.1753L839.597 107.432H817.661C817.44 107.432 817.245 107.578 817.182 107.79L813.806 119.172L806.858 26.7458C806.839 26.4847 806.621 26.283 806.359 26.2832C806.098 26.2835 805.88 26.4855 805.861 26.7466L799.332 115.626L795.99 107.737C795.912 107.552 795.73 107.432 795.53 107.432H787.392L777.841 100.531C777.666 100.405 777.43 100.405 777.255 100.531L767.703 107.432H748.5C748.224 107.432 748 107.656 748 107.932C748 108.208 748.224 108.432 748.5 108.432H767.865C767.97 108.432 768.073 108.399 768.158 108.338L777.548 101.554L786.938 108.338C787.023 108.399 787.125 108.432 787.23 108.432H795.199L799.219 117.921C799.309 118.134 799.533 118.257 799.761 118.22C799.989 118.182 800.161 117.993 800.178 117.763L806.366 33.53L813.013 121.961C813.031 122.202 813.219 122.395 813.458 122.421C813.698 122.446 813.922 122.297 813.991 122.066L818.035 108.432H839.793C839.919 108.432 840.04 108.385 840.133 108.299L856.377 93.2379L871.252 108.284C871.346 108.379 871.474 108.432 871.607 108.432H940.769C940.863 108.432 940.956 108.406 941.036 108.355L951.792 101.555L959.811 108.315C959.902 108.391 960.016 108.432 960.134 108.432H968.102L972.122 117.921C972.212 118.132 972.433 118.256 972.66 118.22C972.886 118.185 973.06 118 973.081 117.772L980.826 32.903L987.3 121.96C987.318 122.209 987.518 122.407 987.768 122.423C988.018 122.438 988.24 122.266 988.289 122.021L990.976 108.432H1011.31C1011.43 108.432 1011.55 108.39 1011.64 108.312L1029.27 93.2244L1044.16 108.284C1044.25 108.379 1044.38 108.432 1044.51 108.432H1105.28H1113.67H1124.64C1124.75 108.432 1124.85 108.399 1124.94 108.338L1134.33 101.554L1143.71 108.338C1143.8 108.399 1143.9 108.432 1144.01 108.432H1151.98L1156 117.921C1156.09 118.134 1156.31 118.257 1156.54 118.22C1156.77 118.182 1156.94 117.993 1156.96 117.763L1163.14 33.53L1169.79 121.961C1169.81 122.202 1170 122.395 1170.24 122.421C1170.48 122.446 1170.7 122.297 1170.77 122.066L1174.81 108.432H1196.57C1196.7 108.432 1196.82 108.385 1196.91 108.299L1213.15 93.2379L1228.03 108.284C1228.12 108.379 1228.25 108.432 1228.38 108.432H1297.55C1297.64 108.432 1297.73 108.406 1297.81 108.355L1308.57 101.555L1316.59 108.315C1316.68 108.391 1316.79 108.432 1316.91 108.432H1324.88L1328.9 117.921C1328.99 118.132 1329.21 118.256 1329.44 118.22C1329.66 118.185 1329.84 118 1329.86 117.772L1337.6 32.903L1344.08 121.96C1344.1 122.209 1344.3 122.407 1344.54 122.423C1344.79 122.438 1345.02 122.266 1345.07 122.021L1347.75 108.432H1368.09C1368.21 108.432 1368.33 108.39 1368.42 108.312L1386.04 93.2244L1400.93 108.284C1401.03 108.379 1401.15 108.432 1401.29 108.432H1470.45C1470.73 108.432 1470.95 108.208 1470.95 107.932C1470.95 107.656 1470.73 107.432 1470.45 107.432H1401.5L1386.43 92.1905C1386.24 92.004 1385.95 91.9916 1385.75 92.1621L1367.91 107.432H1347.34C1347.1 107.432 1346.9 107.601 1346.85 107.835L1344.81 118.185L1338.16 26.7467Z"
            fill="url(#paint5_linear_269_3616)" />
        <rect x="744" y="1.99976" width="676" height="156" rx="78" stroke="url(#paint6_linear_269_3616)"
            stroke-linecap="round" stroke-linejoin="round" />
    </g>
    <circle cx="319" cy="18.283" r="2" fill="#1D7CB8" />
    <circle cx="672" cy="59.283" r="2" fill="#1D7CB8" />
    <circle cx="374" cy="100.283" r="2" fill="#1D7CB8" />
    <circle cx="501" cy="141.283" r="2" fill="#1D7CB8" />
    <defs>
        <linearGradient id="paint0_linear_269_3616" x1="-159" y1="48.5301" x2="190.109" y2="240.253"
            gradientUnits="userSpaceOnUse">
            <stop stop-color="#1DA8FF" stop-opacity="0.7" />
            <stop offset="1" stop-color="#22AAFF" stop-opacity="0" />
        </linearGradient>
        <linearGradient id="paint1_linear_269_3616" x1="-174.168" y1="17.0173" x2="-171.61" y2="67.8496"
            gradientUnits="userSpaceOnUse">
            <stop stop-color="#1E88CA" />
            <stop offset="1" stop-color="#1E88CA" stop-opacity="0" />
        </linearGradient>
        <linearGradient id="paint2_linear_269_3616" x1="-174.168" y1="59.0173" x2="-171.61" y2="109.85"
            gradientUnits="userSpaceOnUse">
            <stop stop-color="#1E88CA" />
            <stop offset="1" stop-color="#1E88CA" stop-opacity="0" />
        </linearGradient>
        <linearGradient id="paint3_linear_269_3616" x1="-174.168" y1="100.017" x2="-171.61" y2="150.85"
            gradientUnits="userSpaceOnUse">
            <stop stop-color="#1E88CA" />
            <stop offset="1" stop-color="#1E88CA" stop-opacity="0" />
        </linearGradient>
        <linearGradient id="paint4_linear_269_3616" x1="-174.168" y1="141.017" x2="-171.61" y2="191.85"
            gradientUnits="userSpaceOnUse">
            <stop stop-color="#1E88CA" />
            <stop offset="1" stop-color="#1E88CA" stop-opacity="0" />
        </linearGradient>
        <linearGradient id="paint5_linear_269_3616" x1="685.738" y1="6.67286" x2="710.678" y2="213.559"
            gradientUnits="userSpaceOnUse">
            <stop stop-color="#44B7FF" />
            <stop offset="1" stop-color="#4EBAFF" stop-opacity="0" />
        </linearGradient>
        <linearGradient id="paint6_linear_269_3616" x1="685.782" y1="-29.82" x2="754.039" y2="296.478"
            gradientUnits="userSpaceOnUse">
            <stop stop-color="#44B7FF" />
            <stop offset="1" stop-color="#4EBAFF" stop-opacity="0" />
        </linearGradient>
        <clipPath id="clip0_269_3616">
            <rect x="744" y="1.28296" width="677" height="158" rx="79" fill="white" />
        </clipPath>
    </defs>
</svg>