<svg width="324" height="37" viewBox="0 0 324 37" fill="none" xmlns="http://www.w3.org/2000/svg">
<path fill-rule="evenodd" clip-rule="evenodd" d="M0 3.90841C0 6.06697 1.74986 7.81683 3.90841 7.81683L41.2373 7.81683C43.3958 7.81683 45.1457 6.06697 45.1457 3.90841C45.1457 1.74986 43.3959 1.60027e-06 41.2373 1.51279e-06L3.90842 0C1.74986 -8.7477e-08 0 1.74985 0 3.90841ZM3.99337 17.3932C1.78789 17.3932 0 15.6053 0 13.3998C0 11.1943 1.7879 9.4064 3.99338 9.4064L41.1523 9.4064C43.3578 9.4064 45.1457 11.1943 45.1457 13.3998C45.1457 15.6053 43.3578 17.3932 41.1523 17.3932L3.99337 17.3932ZM0 22.8331C0 24.9917 1.74986 26.7416 3.90841 26.7416L41.2373 26.7416C43.3958 26.7416 45.1457 24.9917 45.1457 22.8331C45.1457 20.6746 43.3959 18.9247 41.2373 18.9247L3.90842 18.9247C1.74986 18.9247 0 20.6746 0 22.8331ZM0 32.1815C0 34.34 1.74986 36.0899 3.90841 36.0899H41.2373C43.3958 36.0899 45.1457 34.34 45.1457 32.1815C45.1457 30.0229 43.3959 28.2731 41.2373 28.2731L3.90842 28.2731C1.74986 28.2731 0 30.0229 0 32.1815Z" fill="url(#paint0_linear_531_968)"/>
<path d="M48.5659 3.94064H166.218" stroke="url(#paint1_linear_531_968)" stroke-linecap="round" stroke-linejoin="round"/>
<path d="M48.5659 13.517H166.218" stroke="url(#paint2_linear_531_968)" stroke-linecap="round" stroke-linejoin="round"/>
<path d="M48.5659 22.8654H166.218" stroke="url(#paint3_linear_531_968)" stroke-linecap="round" stroke-linejoin="round"/>
<path d="M48.5659 32.2137H166.218" stroke="url(#paint4_linear_531_968)" stroke-linecap="round" stroke-linejoin="round"/>
<g clip-path="url(#clip0_531_968)">
<path fill-rule="evenodd" clip-rule="evenodd" d="M224.148 6.07047C224.129 5.81085 223.914 5.60914 223.654 5.60674C223.394 5.60434 223.175 5.80205 223.151 6.06128L221.44 24.8131L221.271 24.4144C221.193 24.2296 221.011 24.1095 220.811 24.1095H219.101L217.348 22.6321C217.182 22.4916 216.943 22.4753 216.759 22.5918L214.358 24.1095H198.942L195.62 20.7488C195.43 20.5569 195.122 20.5502 194.924 20.7337L191.284 24.1095H186.433C186.212 24.1095 186.017 24.2551 185.954 24.4673L185.782 25.048L184.355 6.0693C184.336 5.80827 184.118 5.60656 183.856 5.60678C183.594 5.60701 183.377 5.80909 183.358 6.07015L181.986 24.7419L181.848 24.4144C181.769 24.2296 181.588 24.1095 181.387 24.1095H179.657L177.58 22.6091C177.405 22.4828 177.169 22.4828 176.994 22.6091L174.918 24.1095H170.664C170.388 24.1095 170.164 24.3333 170.164 24.6095C170.164 24.8856 170.388 25.1095 170.664 25.1095H175.079C175.185 25.1095 175.287 25.0763 175.372 25.0148L177.287 23.6313L179.202 25.0148C179.287 25.0763 179.39 25.1095 179.495 25.1095H181.056L181.873 27.0376C181.963 27.2502 182.187 27.3735 182.415 27.3359C182.643 27.2982 182.815 27.1095 182.832 26.8792L183.862 12.8535L184.989 27.8371C185.007 28.0777 185.194 28.2711 185.434 28.2968C185.674 28.3224 185.898 28.1731 185.967 27.9418L186.807 25.1095H191.48C191.606 25.1095 191.727 25.0618 191.82 24.9761L195.249 21.7962L198.378 24.961C198.472 25.056 198.6 25.1095 198.734 25.1095H214.503C214.598 25.1095 214.69 25.0826 214.77 25.0321L216.984 23.6327L218.596 24.9918C218.686 25.0678 218.8 25.1095 218.918 25.1095H220.48L221.296 27.0376C221.386 27.2487 221.607 27.3719 221.834 27.3366C222.061 27.3012 222.234 27.1163 222.255 26.888L223.593 12.2267L224.727 27.8358C224.746 28.0855 224.946 28.2833 225.195 28.2987C225.445 28.314 225.668 28.1422 225.717 27.8966L226.268 25.1095H230.588C230.707 25.1095 230.822 25.0669 230.913 24.9893L234.659 21.7828L237.801 24.961C237.895 25.056 238.023 25.1095 238.157 25.1095H252.012H253.926H256.428C256.533 25.1095 256.635 25.0763 256.721 25.0148L258.636 23.6313L260.55 25.0148C260.636 25.0763 260.738 25.1095 260.843 25.1095H262.404L263.221 27.0376C263.311 27.2502 263.535 27.3735 263.763 27.3359C263.991 27.2982 264.163 27.1095 264.18 26.8792L265.211 12.8535L266.337 27.8371C266.355 28.0777 266.542 28.2711 266.782 28.2968C267.022 28.3224 267.246 28.1731 267.315 27.9418L268.155 25.1095H272.828C272.954 25.1095 273.075 25.0618 273.168 24.9761L276.597 21.7962L279.726 24.961C279.82 25.056 279.948 25.1095 280.082 25.1095H295.851C295.946 25.1095 296.038 25.0826 296.118 25.0321L298.332 23.6327L299.944 24.9918C300.035 25.0678 300.149 25.1095 300.267 25.1095H301.828L302.645 27.0376C302.734 27.2487 302.956 27.3719 303.182 27.3366C303.409 27.3012 303.582 27.1163 303.603 26.888L304.941 12.2267L306.076 27.8358C306.094 28.0855 306.294 28.2833 306.544 28.2987C306.794 28.314 307.016 28.1422 307.065 27.8966L307.616 25.1095H311.936C312.055 25.1095 312.171 25.0669 312.261 24.9893L316.008 21.7828L319.15 24.961C319.244 25.056 319.372 25.1095 319.505 25.1095H335.275C335.551 25.1095 335.775 24.8856 335.775 24.6095C335.775 24.3333 335.551 24.1095 335.275 24.1095H319.714L316.392 20.7488C316.207 20.5623 315.91 20.55 315.711 20.7205L311.751 24.1095H307.205C307.052 24.1095 306.913 24.1787 306.821 24.2899L305.496 6.07047C305.477 5.81085 305.262 5.60914 305.002 5.60674C304.742 5.60434 304.523 5.80205 304.5 6.06128L302.788 24.8131L302.619 24.4144C302.541 24.2296 302.36 24.1095 302.159 24.1095H300.449L298.697 22.6321C298.53 22.4916 298.291 22.4753 298.107 22.5918L295.706 24.1095H280.291L276.968 20.7488C276.778 20.5569 276.471 20.5502 276.273 20.7337L272.632 24.1095H267.782C267.56 24.1095 267.365 24.2551 267.302 24.4673L267.13 25.048L265.704 6.0693C265.684 5.80827 265.466 5.60656 265.204 5.60678C264.943 5.60701 264.725 5.80909 264.706 6.07015L263.335 24.7419L263.196 24.4144C263.118 24.2296 262.936 24.1095 262.736 24.1095H261.005L258.928 22.6091C258.754 22.4828 258.517 22.4828 258.343 22.6091L256.266 24.1095H253.926H252.012H238.366L235.043 20.7488C234.859 20.5623 234.562 20.55 234.363 20.7205L230.403 24.1095H225.857C225.704 24.1095 225.565 24.1787 225.472 24.2899L224.148 6.07047Z" fill="url(#paint5_linear_531_968)"/>
<rect x="169.638" y="0.455933" width="154.134" height="35.5693" rx="17.7847" stroke="url(#paint6_linear_531_968)" stroke-linecap="round" stroke-linejoin="round"/>
</g>
<circle cx="73.7783" cy="4.21268" r="1.5" fill="#1D7CB8"/>
<circle cx="154.266" cy="13.561" r="1.5" fill="#1D7CB8"/>
<circle cx="86.3193" cy="22.9094" r="1.5" fill="#1D7CB8"/>
<circle cx="115.277" cy="32.2577" r="1.5" fill="#1D7CB8"/>
<defs>
<linearGradient id="paint0_linear_531_968" x1="-36.2534" y1="11.0653" x2="43.3465" y2="54.7798" gradientUnits="userSpaceOnUse">
<stop stop-color="#1DA8FF" stop-opacity="0.7"/>
<stop offset="1" stop-color="#22AAFF" stop-opacity="0"/>
</linearGradient>
<linearGradient id="paint1_linear_531_968" x1="-39.7118" y1="3.67497" x2="-28.9838" y2="52.2676" gradientUnits="userSpaceOnUse">
<stop stop-color="#1E88CA"/>
<stop offset="1" stop-color="#1E88CA" stop-opacity="0"/>
</linearGradient>
<linearGradient id="paint2_linear_531_968" x1="-39.7118" y1="13.2513" x2="-28.9838" y2="61.844" gradientUnits="userSpaceOnUse">
<stop stop-color="#1E88CA"/>
<stop offset="1" stop-color="#1E88CA" stop-opacity="0"/>
</linearGradient>
<linearGradient id="paint3_linear_531_968" x1="-39.7118" y1="22.5997" x2="-28.9838" y2="71.1924" gradientUnits="userSpaceOnUse">
<stop stop-color="#1E88CA"/>
<stop offset="1" stop-color="#1E88CA" stop-opacity="0"/>
</linearGradient>
<linearGradient id="paint4_linear_531_968" x1="-39.7118" y1="31.9481" x2="-28.9838" y2="80.5407" gradientUnits="userSpaceOnUse">
<stop stop-color="#1E88CA"/>
<stop offset="1" stop-color="#1E88CA" stop-opacity="0"/>
</linearGradient>
<linearGradient id="paint5_linear_531_968" x1="155.901" y1="0.977979" x2="161.962" y2="49.7679" gradientUnits="userSpaceOnUse">
<stop stop-color="#44B7FF"/>
<stop offset="1" stop-color="#4EBAFF" stop-opacity="0"/>
</linearGradient>
<linearGradient id="paint6_linear_531_968" x1="156.364" y1="-6.79926" x2="171.927" y2="67.5994" gradientUnits="userSpaceOnUse">
<stop stop-color="#44B7FF"/>
<stop offset="1" stop-color="#4EBAFF" stop-opacity="0"/>
</linearGradient>
<clipPath id="clip0_531_968">
<rect x="169.638" y="0.292511" width="154.362" height="36.0254" rx="18.0127" fill="white"/>
</clipPath>
</defs>
</svg>
