<?xml version="1.0" standalone="no"?>
<!DOCTYPE svg PUBLIC "-//W3C//DTD SVG 20010904//EN"
 "http://www.w3.org/TR/2001/REC-SVG-20010904/DTD/svg10.dtd">
<svg version="1.0" xmlns="http://www.w3.org/2000/svg"
 width="700.000000pt" height="700.000000pt" viewBox="0 0 700.000000 700.000000"
 preserveAspectRatio="xMidYMid meet">
<metadata>
Created by potrace 1.14, written by Peter Selinger 2001-2017
</metadata>
<g transform="translate(0.000000,700.000000) scale(0.100000,-0.100000)"
fill="#000000" stroke="none">
<path d="M0 3500 l0 -3500 3500 0 3500 0 0 3500 0 3500 -3500 0 -3500 0 0
-3500z m5670 380 l0 -2210 -625 0 -625 0 0 95 0 95 530 0 530 0 0 2020 0 2020
-1980 0 -1980 0 0 -2020 0 -2020 543 0 543 0 788 -454 c434 -250 793 -459 799
-465 6 -6 -5 -36 -33 -88 -23 -43 -44 -79 -45 -81 -1 -2 -354 200 -784 448
l-781 450 -610 0 -610 0 0 2210 0 2210 2170 0 2170 0 0 -2210z m-3058 1085
c352 -912 884 -2252 889 -2242 9 17 791 2017 901 2307 50 129 94 242 99 250 5
9 9 -483 9 -1157 l0 -1173 -95 0 -95 0 0 663 c0 401 -4 656 -10 646 -5 -8
-187 -471 -405 -1029 -218 -557 -399 -1019 -403 -1027 -5 -8 -166 391 -406
1005 -220 559 -405 1028 -412 1042 -11 21 -13 -86 -14 -637 l0 -663 -95 0 -95
0 0 1172 c0 644 2 1169 5 1167 2 -3 60 -149 127 -324z"/>
</g>
</svg>
