<svg width="55" height="60" viewBox="0 0 55 60" fill="none" xmlns="http://www.w3.org/2000/svg">
<g clip-path="url(#clip0_747_5)">
<path d="M41.5552 52.6566C37.7577 54.9574 33.4513 56.2861 29.0176 56.5251C24.5838 56.7641 20.1596 55.906 16.1367 54.0267C12.1138 52.1474 8.61653 49.305 5.95456 45.7513C3.2926 42.1975 1.54814 38.0421 0.875721 33.6531C0.2033 29.2642 0.623667 24.7771 2.09959 20.5894C3.57551 16.4017 6.06143 12.6427 9.33714 9.64517C12.6129 6.6477 16.5773 4.50434 20.8792 3.40496C25.1811 2.30559 29.6878 2.28412 34 3.34247L31.2572 14.5179C28.7828 13.9106 26.1968 13.9229 23.7283 14.5538C21.2598 15.1846 18.985 16.4145 17.1054 18.1345C15.2257 19.8545 13.7993 22.0115 12.9524 24.4144C12.1055 26.8173 11.8643 29.3921 12.2501 31.9105C12.6359 34.4289 13.6369 36.8134 15.1644 38.8525C16.6919 40.8917 18.6987 42.5227 21.007 43.6011C23.3154 44.6794 25.8541 45.1718 28.3982 45.0347C30.9423 44.8976 33.4134 44.1351 35.5925 42.8149L41.5552 52.6566Z" fill="url(#paint0_linear_747_5)"/>
<path d="M36.9038 4.23115C41.4261 5.89833 45.4197 8.74567 48.4699 12.4775C51.5201 16.2094 53.5158 20.6897 54.2496 25.4534C54.9835 30.217 54.4289 35.0902 52.6433 39.5671C50.8577 44.0439 47.9063 47.9612 44.0954 50.9122L41.0342 46.959C44.1393 44.5545 46.5442 41.3626 47.9991 37.7148C49.454 34.0669 49.906 30.0961 49.308 26.2147C48.71 22.3332 47.0839 18.6825 44.5986 15.6417C42.1132 12.601 38.8592 10.2809 35.1743 8.92244L36.9038 4.23115Z" fill="url(#paint1_linear_747_5)"/>
<circle cx="28.0645" cy="29.0645" r="8.5" fill="url(#paint2_linear_747_5)"/>
</g>
<defs>
<linearGradient id="paint0_linear_747_5" x1="-4.88222" y1="-7.77323" x2="55.1345" y2="55.6886" gradientUnits="userSpaceOnUse">
<stop stop-color="#44B7FF"/>
<stop offset="1" stop-color="#4EBAFF" stop-opacity="0"/>
</linearGradient>
<linearGradient id="paint1_linear_747_5" x1="-4.08613" y1="-8.45009" x2="54.5767" y2="56.2653" gradientUnits="userSpaceOnUse">
<stop stop-color="#44B7FF"/>
<stop offset="1" stop-color="#4EBAFF" stop-opacity="0"/>
</linearGradient>
<linearGradient id="paint2_linear_747_5" x1="18.1004" y1="17.0969" x2="36.5683" y2="37.4703" gradientUnits="userSpaceOnUse">
<stop stop-color="#44B7FF"/>
<stop offset="1" stop-color="#4EBAFF" stop-opacity="0"/>
</linearGradient>
<clipPath id="clip0_747_5">
<rect width="55" height="60" fill="white"/>
</clipPath>
</defs>
</svg>
